<svg xmlns="http://www.w3.org/2000/svg" width="60" height="60" fill="none"><g clip-path="url(#a)"><path fill="#FF6315" d="M3.79 8.692C-.25 36.8 19.695 54.61 30.172 60 40.65 54.609 60.298 36.8 56.257 8.692L30.024 2.037 3.79 8.692Z"/><path stroke="#611700" stroke-linejoin="round" stroke-width="1.115" d="M30.172 2 3.79 8.692C-.251 36.8 19.694 54.61 30.17 60c10.48-5.391 30.128-23.2 26.087-51.308L29.876 2"/><path fill="#DC5818" fill-rule="evenodd" d="M29.91 60C19.327 54.609-.815 36.8 3.266 8.692L29.76 2.037l2.267.57L7.802 8.692c-3.805 26.206 13.445 43.46 24.373 50.044-.791.477-1.55.9-2.266 1.264Z" clip-rule="evenodd"/><path stroke="#611700" stroke-linejoin="round" stroke-width="1.338" d="M30.172 2 3.79 8.692C-.251 36.8 19.694 54.61 30.17 60c10.48-5.391 30.128-23.2 26.087-51.308L29.876 2"/><path fill="#C4CC2E" d="M25.566 15.385h6.692v24.538h-6.692V15.385Z"/><path fill="#C4CC2E" d="M16.643 24.308h8.923v7.807h-8.923v-7.807Zm16.73 0h8.923v7.807h-8.923v-7.807Z"/><path fill="#E1F531" d="M26.681 15.385h6.692v24.538h-6.692V15.385Z"/><path fill="#EBF877" d="M31.143 16.5h1.115v6.692h-1.115V16.5Z"/><path fill="#E1F531" d="M17.758 31v-6.692h24.538V31H17.758Z"/><path fill="#EBF877" d="M40.066 25.423h1.115v4.462h-1.115v-4.462Z"/><path stroke="#611700" stroke-width="1.115" d="M25.566 14.827h-.558v8.923h-8.923v8.923h8.923v7.808h8.923v-7.808h8.923V23.75h-8.923v-8.923h-8.365Z"/><path fill="#F96" d="m54.008 10.923-4.461-1.115c3.123 2.23 2.045 16.544 1.115 23.423 3.123-7.585 3.532-18.032 3.346-22.308Z"/></g><defs><clipPath id="a"><path fill="#fff" d="M0 0h60v60H0z"/></clipPath></defs></svg>