<svg xmlns="http://www.w3.org/2000/svg" width="49" height="68" fill="none"><path fill="#FF6316" fill-rule="evenodd" d="M24.69.374c8.047 0 14.57 6.524 14.57 14.571 0 .378-.014.751-.042 1.121h.377c4.2 0 7.655 3.31 7.838 7.506l1.56 35.867c.194 4.463-3.373 8.187-7.84 8.187H8.225a7.846 7.846 0 0 1-7.839-8.187l1.56-35.867a7.846 7.846 0 0 1 7.839-7.506h.376a14.83 14.83 0 0 1-.043-1.12C10.118 6.897 16.642.373 24.69.373ZM14.04 22.791a2.802 2.802 0 1 0 0 5.605 2.802 2.802 0 0 0 0-5.605Zm21.297 0a2.802 2.802 0 1 0 0 5.605 2.802 2.802 0 0 0 0-5.605ZM24.69 4.858c-5.572 0-10.088 4.516-10.088 10.087 0 .38.022.753.062 1.121h20.05c.04-.368.063-.742.063-1.12 0-5.572-4.516-10.088-10.087-10.088Z" clip-rule="evenodd"/></svg>