<svg xmlns="http://www.w3.org/2000/svg" width="61" height="60" fill="none"><g clip-path="url(#a)"><path fill="#E86052" d="M49.017 48.05c-2.742 2.745-5.655 4.748-8.653 6.145-5.033 2.344-10.31 2.982-15.432 2.565-5.012-.408-11.343-3.092-14.024-6.755-1.837 1.523-2.358 4.583-1.835 8.71-.924.746-2.693.93-3.99.668-.004 0-.007 0-.01-.002-.615-.124-1.125-.35-1.385-.665-.684-6.339.278-11.783 5.415-14.963 3.07-3.51 7.206-5.674 12.542-6.316a8.834 8.834 0 0 0 7.251-5.807c1.468-4.132-.072-9.222-1.004-15.046-5.142-3.105-8.812-8.219-9.401-14.649l-.009-.09c0-.745 1.616-1.349 3.61-1.349.573 0 1.115.05 1.596.139 1.194.22 2.014.679 2.014 1.21 0 0 .414 6.177 6.154 7.866a24.63 24.63 0 0 1 1.64-.647c.004 0 .006-.002.009-.003.284-.1.568-.194.85-.281l.068-.02c19.78-6.071 32.643 19.511 14.594 39.29Z"/><path fill="#512A23" d="m40.383 54.185-.02.01c-5.032 2.344-10.31 2.983-15.43 2.566-5.013-.409-11.344-3.093-14.025-6.755-1.837 1.522-2.358 4.583-1.835 8.71-.924.745-2.693.93-3.991.668.004 0 .009 0 .014.002 1.468.27 2.438-.892 2.438-2.107 0-1.215 0-6.489 1.48-8.607 1.281-1.834 1.039-2.84.95-3.076 3.227 7.774 13.922 13.573 30.419 8.59Zm-9.276-42.726c-6.122-1.452-7.771-8.255-7.771-8.255l-1.657-.35c2.245-.622 3.225-1.338 2.01-2.22 1.193.22 2.013.68 2.013 1.21 0 0 .414 6.178 6.154 7.867.551-.24 1.1-.455 1.641-.646-2.496.974-2.39 2.394-2.39 2.394Z" opacity=".2" style="mix-blend-mode:color-burn"/><path fill="#fff" d="M4.635 58.953c-.234-4.204-.017-8.125 1.9-10.983.256-.383.846-.064.67.363-1.16 2.81-1.425 6.63-1.209 10.847m13.74-56.325s.739 4.938 4.22 8.837c.247.276.682-.036.498-.358-1.346-2.341-2.394-4.91-2.64-8.09l-2.078-.39Z" opacity=".34"/><path fill="#611700" d="M6.246 59.998c-1.23 0-2.41-.323-2.94-.964a.5.5 0 0 1-.112-.264c-.821-7.603.953-12.5 5.584-15.4 3.196-3.627 7.505-5.789 12.808-6.427 3.106-.374 5.792-2.525 6.842-5.48 1.117-3.143.416-6.896-.395-11.242-.201-1.077-.409-2.19-.595-3.331-2.612-1.614-4.754-3.668-6.368-6.108-1.745-2.639-2.78-5.597-3.073-8.792a1.677 1.677 0 0 1-.007-.071l-.002-.025a.503.503 0 0 1-.003-.05C17.985.577 20.115 0 22.092 0c1.979 0 4.083.57 4.108 1.824.011.14.147 1.564.892 3.141 1.001 2.122 2.594 3.54 4.735 4.218 4.458-1.901 8.93-2.328 12.945-1.232 3.785 1.033 7.052 3.355 9.447 6.714 3.042 4.267 4.389 9.8 3.792 15.583-.661 6.407-3.644 12.679-8.627 18.139a.336.336 0 0 1-.015.016c-6.649 6.658-14.883 9.636-24.477 8.855-4.61-.376-10.962-2.771-14.04-6.513-1.335 1.45-1.767 4.107-1.285 7.91a.499.499 0 0 1-.182.45c-.742.598-1.964.895-3.14.895Zm-2.082-1.507c.703.587 3.126.758 4.38-.01-.504-4.336.185-7.315 2.047-8.859a.498.498 0 0 1 .718.09c2.65 3.62 9.029 6.175 13.664 6.552 9.284.757 17.253-2.123 23.685-8.558C59.415 35.91 58.662 22.61 53.409 15.243c-4.82-6.762-13.003-8.706-21.355-5.075a.497.497 0 0 1-.338.02c-2.488-.731-4.404-2.403-5.54-4.832-.85-1.82-.965-3.411-.97-3.478a.466.466 0 0 1-.001-.033c0-.219-1.07-.85-3.113-.85s-3.075.61-3.112.838a.733.733 0 0 0 .006.057c.546 5.962 3.8 11.03 9.162 14.268a.498.498 0 0 1 .235.347c.193 1.208.414 2.39.627 3.533.838 4.487 1.561 8.363.355 11.76-1.176 3.307-4.183 5.715-7.66 6.133-5.08.612-9.194 2.68-12.228 6.15a.49.49 0 0 1-.113.096c-4.28 2.65-5.934 7.2-5.2 14.314Z"/><path fill="#611700" d="M22.36 3.76c-.175 0-.35-.005-.521-.015-1.657-.09-3.659-.622-3.848-1.823a.497.497 0 1 1 .982-.155c.053.34 1.217.891 2.92.984 1.74.095 3.14-.341 3.329-1.037a.497.497 0 1 1 .96.262c-.36 1.322-2.125 1.784-3.822 1.784Z"/><path fill="#FF6315" d="m54.057 33.288-.002.01a26.15 26.15 0 0 1-1.577 4.68c-5.15 11.566-13.97 16.44-26.535 16.2-1.943-.038-3.874-.367-5.703-1.026-9.59-3.456-7.664-12.095 2.637-13.277.607-.069 1.21-.17 1.796-.336 3.302-.93 5.567-2.963 6.7-6.196 1.147-3.267 1.139-7.76-.12-13.581a6.44 6.44 0 0 1 2.049-6.223c7.461-6.495 20.834-1.462 21.386 13.3a24.334 24.334 0 0 1-.631 6.45Z"/><path fill="#512A23" d="M54.705 27.829c-3.241-11.32-14.897-14.615-21.787-8.617a6.719 6.719 0 0 0-1.422 1.733 52.382 52.382 0 0 0-.242-1.183 6.44 6.44 0 0 1 2.049-6.223c7.461-6.494 20.834-1.461 21.386 13.3.012.33.018.661.016.99Z" opacity=".2"/><path fill="#E1F531" d="m54.055 33.297-.2.765.007.003a26.153 26.153 0 0 1-1.385 3.912c-5.149 11.567-13.97 16.44-26.534 16.2a17.79 17.79 0 0 1-5.703-1.025c-9.59-3.456-7.664-12.095 2.637-13.277.607-.069 1.21-.17 1.796-.336 3.302-.93 5.567-2.963 6.7-6.196 3.77-1.73 7.644-.497 11.366.737 5.442-.361 8.501-2.456 11.318-.791l-.002.008Z"/><path fill="#fff" d="M31.735 37.699s.693-2.613 1.736-3.15c1.044-.538 2.567-.424 2.07 1.575-.498 1.998-4.324 4.178-3.806 1.575ZM21.148 48.672c-1.747-.019-3.233-1.348-3.354-3.093-.056-.798.182-1.597 1.084-2.113 2.406-1.376 6.923-1.292 9.03-2.942 2.108-1.65 4.048 1.416 1.328 4.1-2.167 2.14-5.04 4.081-8.088 4.048Z" opacity=".34"/><path fill="#512A23" d="M53.322 35.837c-.25.724-.532 1.438-.844 2.14-5.15 11.567-13.97 16.44-26.534 16.2a17.785 17.785 0 0 1-5.703-1.025c-6.033-2.174-7.508-6.399-5.209-9.528-.28 2.614 1.68 5.404 6.211 7.036 1.829.66 3.76.989 5.703 1.026 12.437.238 21.205-4.535 26.376-15.85Z" opacity=".2"/><path fill="#611700" d="M26.831 54.684c-.296 0-.595-.003-.897-.008-2.055-.04-4.027-.395-5.862-1.056-2.234-.805-4.012-1.953-5.14-3.321-1.084-1.312-1.566-2.793-1.393-4.283.399-3.43 4.042-6.034 9.283-6.635.656-.075 1.219-.18 1.718-.321 3.23-.911 5.318-2.852 6.383-5.933 1.107-3.203 1.055-7.664-.156-13.26a6.936 6.936 0 0 1 2.209-6.704c3.516-3.06 8.465-3.761 12.916-1.83 5.547 2.406 9.021 8.196 9.294 15.488.142 3.8-.637 7.728-2.253 11.359-2.604 5.846-6.1 10.017-10.687 12.752-4.23 2.522-9.28 3.752-15.415 3.752Zm4.908-35.028c1.25 5.777 1.291 10.418.124 13.796-1.163 3.365-3.536 5.574-7.054 6.566-.55.155-1.164.27-1.874.352-2.47.283-4.574 1.026-6.085 2.149-1.363 1.012-2.166 2.261-2.323 3.612-.304 2.624 1.95 5.135 5.882 6.552 1.732.624 3.598.96 5.544.997 12.846.246 21.13-4.81 26.071-15.906 1.555-3.492 2.305-7.267 2.168-10.916-.258-6.899-3.509-12.361-8.696-14.612-4.096-1.777-8.644-1.138-11.868 1.669a5.94 5.94 0 0 0-1.889 5.741Z"/><path fill="#611700" d="M49.693 36.165c-2.257 0-4.608-.78-6.912-1.545l-.134-.044a.493.493 0 0 1-.172-.058c-3.613-1.197-7.337-2.356-10.895-.721a.497.497 0 1 1-.415-.905c3.914-1.798 7.836-.574 11.635.685 1.987-.14 3.648-.513 5.117-.844 2.5-.562 4.476-1.006 6.392.127a.498.498 0 0 1 .229.554l-.31 1.196a.498.498 0 0 1-.204.288c-1.374.922-2.832 1.267-4.331 1.267Zm-4.614-1.848c2.973.91 5.773 1.411 8.235-.144l.163-.63c-1.49-.704-3.13-.335-5.342.162-.93.21-1.936.435-3.056.612Z"/><path fill="#611700" d="M42.715 34.58a.498.498 0 0 1-.023-.995.498.498 0 1 1 .068.994.512.512 0 0 1-.046.001Zm.06-.004Zm-.098-.99h-.003.003Zm-5.722 6.102a2.375 2.375 0 0 1 0-4.748 2.375 2.375 0 0 1 0 4.748Zm0-3.852a1.478 1.478 0 0 0 0 2.956 1.478 1.478 0 0 0 0-2.956Zm1.49 8.653a1.693 1.693 0 0 1 0-3.386 1.693 1.693 0 0 1 0 3.386Zm0-2.49a.797.797 0 0 0 0 1.593.796.796 0 0 0 0-1.592Zm-6.762 5.7a1.56 1.56 0 0 1 0-3.12 1.56 1.56 0 0 1 0 3.12Zm0-2.223a.664.664 0 1 0 .002 1.327.664.664 0 0 0-.002-1.327Zm-9.334 2.014a1.95 1.95 0 0 1 0-3.898 1.95 1.95 0 0 1 0 3.899Zm0-3.002a1.054 1.054 0 0 0 0 2.106 1.053 1.053 0 0 0 0-2.105Z"/></g><defs><clipPath id="a"><path fill="#fff" d="M3 0h55.149v60H3z"/></clipPath></defs></svg>